# xmcd CD database file
#
# Track frame offsets:
#	150
#	15077
#	26862
#	39245
#	50495
#	63262
#	81045
#	96687
#	107340
#	121857
#	131862
#	144105
#	155587
#	167865
#	183715
#	194600
#	206690
#	218937
#	230590
#	243502
#
# Disc length: 3497 seconds
#
# Revision: 1
# Processed by: cddbd v1.4PL0 Copyright (c) Steve Scherf et al.
# Submitted via: CDex 1.50
#
DISCID=1c0da714
DTITLE=Various Artist - Treasury of Country Inspirational Favourites 1
DYEAR=1900
DGENRE=Country
TTITLE0=Sonny James - How Great Thou Art
TTITLE1=Loretta Lynn - The Old Rugged Cross
TTITLE2=Bobby Bare - Just a Closer Walk With Thee
TTITLE3=Chuck Wagon Gang - Amazing Grace
TTITLE4=Porter Wagoner - Wings of a Dove
TTITLE5=Elvis Presley - It Is No Secret (What God Can Do)
TTITLE6=Leroy Van Dyke - Precious Memories
TTITLE7=Stuart Hamblen - That Old-Time Religion
TTITLE8=Jim Nabors - Bringing in The Sheaves
TTITLE9=George Beverly Shea - Rock of Ages
TTITLE10=Rex Humbard - Put Your hand in the Hand
TTITLE11=Loretta Lynn - I Believe
TTITLE12=Glen Campbell - I Will Never Pass This Way Again
TTITLE13=Reba McEntire - Suddenly There's a Valley
TTITLE14=George Beverly Shea - May The Good Lord Bless And keep You
TTITLE15=Floyd Cramer - Everything Is Beautiful
TTITLE16=Guy and Ralna - He
TTITLE17=Dottie West - You'll Never Walk Alone
TTITLE18=George Jones - These Hands
TTITLE19=Blackwood Brothers Quartet - Bridge Over Troubled Waters
EXTD=
EXTT0=
EXTT1=
EXTT2=
EXTT3=
EXTT4=
EXTT5=
EXTT6=
EXTT7=
EXTT8=
EXTT9=
EXTT10=
EXTT11=
EXTT12=
EXTT13=
EXTT14=
EXTT15=
EXTT16=
EXTT17=
EXTT18=
EXTT19=
PLAYORDER=
